<mxfile host="app.diagrams.net" modified="2024-01-23T14:03:51.120Z" agent="Mozilla/5.0 (X11; Linux x86_64; rv:121.0) Gecko/20100101 Firefox/121.0" etag="6zXrs7MceNv4omPvKU_X" version="22.1.21" type="device">
  <diagram name="Page-1" id="y52zuowVkVVyD8nf9QzI">
    <mxGraphModel dx="2819" dy="929" grid="1" gridSize="10" guides="1" tooltips="1" connect="1" arrows="1" fold="1" page="1" pageScale="1" pageWidth="850" pageHeight="1100" math="0" shadow="0">
      <root>
        <mxCell id="0" />
        <mxCell id="1" parent="0" />
        <mxCell id="WQkxO2qCiPvi56gEC8bx-1" value="&lt;i&gt;Door&lt;/i&gt;" style="swimlane;fontStyle=1;align=center;verticalAlign=top;childLayout=stackLayout;horizontal=1;startSize=26;horizontalStack=0;resizeParent=1;resizeParentMax=0;resizeLast=0;collapsible=1;marginBottom=0;whiteSpace=wrap;html=1;" vertex="1" parent="1">
          <mxGeometry x="-295" y="40" width="160" height="100" as="geometry" />
        </mxCell>
        <mxCell id="WQkxO2qCiPvi56gEC8bx-2" value="- state: enum" style="text;strokeColor=none;fillColor=none;align=left;verticalAlign=top;spacingLeft=4;spacingRight=4;overflow=hidden;rotatable=0;points=[[0,0.5],[1,0.5]];portConstraint=eastwest;whiteSpace=wrap;html=1;" vertex="1" parent="WQkxO2qCiPvi56gEC8bx-1">
          <mxGeometry y="26" width="160" height="26" as="geometry" />
        </mxCell>
        <mxCell id="WQkxO2qCiPvi56gEC8bx-3" value="" style="line;strokeWidth=1;fillColor=none;align=left;verticalAlign=middle;spacingTop=-1;spacingLeft=3;spacingRight=3;rotatable=0;labelPosition=right;points=[];portConstraint=eastwest;strokeColor=inherit;" vertex="1" parent="WQkxO2qCiPvi56gEC8bx-1">
          <mxGeometry y="52" width="160" height="8" as="geometry" />
        </mxCell>
        <mxCell id="WQkxO2qCiPvi56gEC8bx-4" value="&lt;div&gt;&lt;i&gt;+ open(): void&lt;/i&gt;&lt;/div&gt;&lt;div&gt;&lt;i&gt;+ close(): void&lt;br&gt;&lt;/i&gt;&lt;/div&gt;" style="text;strokeColor=none;fillColor=none;align=left;verticalAlign=top;spacingLeft=4;spacingRight=4;overflow=hidden;rotatable=0;points=[[0,0.5],[1,0.5]];portConstraint=eastwest;whiteSpace=wrap;html=1;" vertex="1" parent="WQkxO2qCiPvi56gEC8bx-1">
          <mxGeometry y="60" width="160" height="40" as="geometry" />
        </mxCell>
        <mxCell id="WQkxO2qCiPvi56gEC8bx-5" value="SimpleDoor" style="swimlane;fontStyle=1;align=center;verticalAlign=top;childLayout=stackLayout;horizontal=1;startSize=26;horizontalStack=0;resizeParent=1;resizeParentMax=0;resizeLast=0;collapsible=1;marginBottom=0;whiteSpace=wrap;html=1;" vertex="1" parent="1">
          <mxGeometry x="-375" y="240" width="160" height="34" as="geometry" />
        </mxCell>
        <mxCell id="WQkxO2qCiPvi56gEC8bx-7" value="" style="line;strokeWidth=1;fillColor=none;align=left;verticalAlign=middle;spacingTop=-1;spacingLeft=3;spacingRight=3;rotatable=0;labelPosition=right;points=[];portConstraint=eastwest;strokeColor=inherit;" vertex="1" parent="WQkxO2qCiPvi56gEC8bx-5">
          <mxGeometry y="26" width="160" height="8" as="geometry" />
        </mxCell>
        <mxCell id="WQkxO2qCiPvi56gEC8bx-9" value="" style="endArrow=block;endSize=16;endFill=0;html=1;rounded=0;exitX=0.5;exitY=0;exitDx=0;exitDy=0;entryX=0.495;entryY=1.008;entryDx=0;entryDy=0;entryPerimeter=0;" edge="1" parent="1" source="WQkxO2qCiPvi56gEC8bx-5" target="WQkxO2qCiPvi56gEC8bx-4">
          <mxGeometry width="160" relative="1" as="geometry">
            <mxPoint x="-270" y="280" as="sourcePoint" />
            <mxPoint x="-110" y="280" as="targetPoint" />
          </mxGeometry>
        </mxCell>
        <mxCell id="WQkxO2qCiPvi56gEC8bx-10" value="SmartDoor" style="swimlane;fontStyle=1;align=center;verticalAlign=top;childLayout=stackLayout;horizontal=1;startSize=26;horizontalStack=0;resizeParent=1;resizeParentMax=0;resizeLast=0;collapsible=1;marginBottom=0;whiteSpace=wrap;html=1;" vertex="1" parent="1">
          <mxGeometry x="-295" y="360" width="240" height="140" as="geometry" />
        </mxCell>
        <mxCell id="WQkxO2qCiPvi56gEC8bx-11" value="- timeLimit: decimal" style="text;strokeColor=none;fillColor=none;align=left;verticalAlign=top;spacingLeft=4;spacingRight=4;overflow=hidden;rotatable=0;points=[[0,0.5],[1,0.5]];portConstraint=eastwest;whiteSpace=wrap;html=1;" vertex="1" parent="WQkxO2qCiPvi56gEC8bx-10">
          <mxGeometry y="26" width="240" height="26" as="geometry" />
        </mxCell>
        <mxCell id="WQkxO2qCiPvi56gEC8bx-12" value="" style="line;strokeWidth=1;fillColor=none;align=left;verticalAlign=middle;spacingTop=-1;spacingLeft=3;spacingRight=3;rotatable=0;labelPosition=right;points=[];portConstraint=eastwest;strokeColor=inherit;" vertex="1" parent="WQkxO2qCiPvi56gEC8bx-10">
          <mxGeometry y="52" width="240" height="8" as="geometry" />
        </mxCell>
        <mxCell id="WQkxO2qCiPvi56gEC8bx-13" value="&lt;div&gt;+ setTimeLimit(timeLimit): void&lt;/div&gt;&lt;div&gt;&amp;lt;&amp;lt;event&amp;gt;&amp;gt;&lt;/div&gt;&lt;div&gt;+ OnDoorOpen: StartTimer&lt;/div&gt;&lt;div&gt;+ OnDoorClose: StopTimer&lt;/div&gt;&lt;div&gt;+ OnTimerElapsed: ExecuteAction&lt;/div&gt;" style="text;strokeColor=none;fillColor=none;align=left;verticalAlign=top;spacingLeft=4;spacingRight=4;overflow=hidden;rotatable=0;points=[[0,0.5],[1,0.5]];portConstraint=eastwest;whiteSpace=wrap;html=1;" vertex="1" parent="WQkxO2qCiPvi56gEC8bx-10">
          <mxGeometry y="60" width="240" height="80" as="geometry" />
        </mxCell>
        <mxCell id="WQkxO2qCiPvi56gEC8bx-14" value="Extends" style="endArrow=block;endSize=16;endFill=0;html=1;rounded=0;exitX=0.5;exitY=0;exitDx=0;exitDy=0;entryX=0.5;entryY=1;entryDx=0;entryDy=0;" edge="1" parent="1" source="WQkxO2qCiPvi56gEC8bx-10" target="WQkxO2qCiPvi56gEC8bx-5">
          <mxGeometry width="160" relative="1" as="geometry">
            <mxPoint x="-270" y="280" as="sourcePoint" />
            <mxPoint x="-110" y="280" as="targetPoint" />
          </mxGeometry>
        </mxCell>
        <mxCell id="WQkxO2qCiPvi56gEC8bx-15" value="Timer" style="swimlane;fontStyle=1;align=center;verticalAlign=top;childLayout=stackLayout;horizontal=1;startSize=26;horizontalStack=0;resizeParent=1;resizeParentMax=0;resizeLast=0;collapsible=1;marginBottom=0;whiteSpace=wrap;html=1;" vertex="1" parent="1">
          <mxGeometry x="50" y="360" width="160" height="100" as="geometry" />
        </mxCell>
        <mxCell id="WQkxO2qCiPvi56gEC8bx-16" value="- interval: decimal" style="text;strokeColor=none;fillColor=none;align=left;verticalAlign=top;spacingLeft=4;spacingRight=4;overflow=hidden;rotatable=0;points=[[0,0.5],[1,0.5]];portConstraint=eastwest;whiteSpace=wrap;html=1;" vertex="1" parent="WQkxO2qCiPvi56gEC8bx-15">
          <mxGeometry y="26" width="160" height="26" as="geometry" />
        </mxCell>
        <mxCell id="WQkxO2qCiPvi56gEC8bx-17" value="" style="line;strokeWidth=1;fillColor=none;align=left;verticalAlign=middle;spacingTop=-1;spacingLeft=3;spacingRight=3;rotatable=0;labelPosition=right;points=[];portConstraint=eastwest;strokeColor=inherit;" vertex="1" parent="WQkxO2qCiPvi56gEC8bx-15">
          <mxGeometry y="52" width="160" height="8" as="geometry" />
        </mxCell>
        <mxCell id="WQkxO2qCiPvi56gEC8bx-18" value="&lt;div&gt;+ StartTimer(): void&lt;/div&gt;&lt;div&gt;+ StopTimer(): void&lt;br&gt;&lt;/div&gt;" style="text;strokeColor=none;fillColor=none;align=left;verticalAlign=top;spacingLeft=4;spacingRight=4;overflow=hidden;rotatable=0;points=[[0,0.5],[1,0.5]];portConstraint=eastwest;whiteSpace=wrap;html=1;" vertex="1" parent="WQkxO2qCiPvi56gEC8bx-15">
          <mxGeometry y="60" width="160" height="40" as="geometry" />
        </mxCell>
        <mxCell id="WQkxO2qCiPvi56gEC8bx-19" value="" style="endArrow=diamondThin;endFill=0;endSize=24;html=1;rounded=0;exitX=0;exitY=0.5;exitDx=0;exitDy=0;entryX=1;entryY=0.5;entryDx=0;entryDy=0;" edge="1" parent="1" source="WQkxO2qCiPvi56gEC8bx-16" target="WQkxO2qCiPvi56gEC8bx-11">
          <mxGeometry width="160" relative="1" as="geometry">
            <mxPoint x="-270" y="380" as="sourcePoint" />
            <mxPoint x="-110" y="380" as="targetPoint" />
          </mxGeometry>
        </mxCell>
        <mxCell id="WQkxO2qCiPvi56gEC8bx-20" value="Start/StopTimer" style="html=1;verticalAlign=bottom;endArrow=block;curved=0;rounded=0;entryX=0;entryY=0.5;entryDx=0;entryDy=0;" edge="1" parent="1" target="WQkxO2qCiPvi56gEC8bx-18">
          <mxGeometry width="80" relative="1" as="geometry">
            <mxPoint x="-60" y="470" as="sourcePoint" />
            <mxPoint x="10" y="570" as="targetPoint" />
          </mxGeometry>
        </mxCell>
        <mxCell id="WQkxO2qCiPvi56gEC8bx-21" value="OnTimerElapsed" style="html=1;verticalAlign=bottom;endArrow=block;curved=0;rounded=0;exitX=-0.005;exitY=1.008;exitDx=0;exitDy=0;exitPerimeter=0;" edge="1" parent="1" source="WQkxO2qCiPvi56gEC8bx-18">
          <mxGeometry width="80" relative="1" as="geometry">
            <mxPoint x="44.20000000000027" y="480" as="sourcePoint" />
            <mxPoint x="-55" y="490.48" as="targetPoint" />
          </mxGeometry>
        </mxCell>
        <mxCell id="WQkxO2qCiPvi56gEC8bx-22" value="&lt;i&gt;AddonFeature&lt;/i&gt;" style="swimlane;fontStyle=1;align=center;verticalAlign=top;childLayout=stackLayout;horizontal=1;startSize=26;horizontalStack=0;resizeParent=1;resizeParentMax=0;resizeLast=0;collapsible=1;marginBottom=0;whiteSpace=wrap;html=1;" vertex="1" parent="1">
          <mxGeometry x="-580" y="387" width="160" height="60" as="geometry" />
        </mxCell>
        <mxCell id="WQkxO2qCiPvi56gEC8bx-24" value="" style="line;strokeWidth=1;fillColor=none;align=left;verticalAlign=middle;spacingTop=-1;spacingLeft=3;spacingRight=3;rotatable=0;labelPosition=right;points=[];portConstraint=eastwest;strokeColor=inherit;" vertex="1" parent="WQkxO2qCiPvi56gEC8bx-22">
          <mxGeometry y="26" width="160" height="8" as="geometry" />
        </mxCell>
        <mxCell id="WQkxO2qCiPvi56gEC8bx-25" value="&lt;i&gt;+ ExecuteAction(): void&lt;/i&gt;" style="text;strokeColor=none;fillColor=none;align=left;verticalAlign=top;spacingLeft=4;spacingRight=4;overflow=hidden;rotatable=0;points=[[0,0.5],[1,0.5]];portConstraint=eastwest;whiteSpace=wrap;html=1;" vertex="1" parent="WQkxO2qCiPvi56gEC8bx-22">
          <mxGeometry y="34" width="160" height="26" as="geometry" />
        </mxCell>
        <mxCell id="WQkxO2qCiPvi56gEC8bx-26" value="AutoCloseFeature" style="swimlane;fontStyle=1;align=center;verticalAlign=top;childLayout=stackLayout;horizontal=1;startSize=26;horizontalStack=0;resizeParent=1;resizeParentMax=0;resizeLast=0;collapsible=1;marginBottom=0;whiteSpace=wrap;html=1;" vertex="1" parent="1">
          <mxGeometry x="-750" y="560" width="160" height="60" as="geometry" />
        </mxCell>
        <mxCell id="WQkxO2qCiPvi56gEC8bx-28" value="" style="line;strokeWidth=1;fillColor=none;align=left;verticalAlign=middle;spacingTop=-1;spacingLeft=3;spacingRight=3;rotatable=0;labelPosition=right;points=[];portConstraint=eastwest;strokeColor=inherit;" vertex="1" parent="WQkxO2qCiPvi56gEC8bx-26">
          <mxGeometry y="26" width="160" height="8" as="geometry" />
        </mxCell>
        <mxCell id="WQkxO2qCiPvi56gEC8bx-29" value="+ ExecuteAction(): void" style="text;strokeColor=none;fillColor=none;align=left;verticalAlign=top;spacingLeft=4;spacingRight=4;overflow=hidden;rotatable=0;points=[[0,0.5],[1,0.5]];portConstraint=eastwest;whiteSpace=wrap;html=1;" vertex="1" parent="WQkxO2qCiPvi56gEC8bx-26">
          <mxGeometry y="34" width="160" height="26" as="geometry" />
        </mxCell>
        <mxCell id="WQkxO2qCiPvi56gEC8bx-30" value="" style="endArrow=open;html=1;endSize=12;startArrow=diamondThin;startSize=14;startFill=0;edgeStyle=orthogonalEdgeStyle;rounded=0;exitX=0;exitY=0.5;exitDx=0;exitDy=0;entryX=1;entryY=0.5;entryDx=0;entryDy=0;" edge="1" parent="1" source="WQkxO2qCiPvi56gEC8bx-11" target="WQkxO2qCiPvi56gEC8bx-22">
          <mxGeometry relative="1" as="geometry">
            <mxPoint x="-270" y="360" as="sourcePoint" />
            <mxPoint x="-110" y="360" as="targetPoint" />
          </mxGeometry>
        </mxCell>
        <mxCell id="WQkxO2qCiPvi56gEC8bx-31" value="1" style="edgeLabel;resizable=0;html=1;align=left;verticalAlign=top;" connectable="0" vertex="1" parent="WQkxO2qCiPvi56gEC8bx-30">
          <mxGeometry x="-1" relative="1" as="geometry">
            <mxPoint x="-15" as="offset" />
          </mxGeometry>
        </mxCell>
        <mxCell id="WQkxO2qCiPvi56gEC8bx-32" value="0..n" style="edgeLabel;resizable=0;html=1;align=right;verticalAlign=top;" connectable="0" vertex="1" parent="WQkxO2qCiPvi56gEC8bx-30">
          <mxGeometry x="1" relative="1" as="geometry">
            <mxPoint x="20" as="offset" />
          </mxGeometry>
        </mxCell>
        <mxCell id="WQkxO2qCiPvi56gEC8bx-33" value="BuzzerAlertFeature" style="swimlane;fontStyle=1;align=center;verticalAlign=top;childLayout=stackLayout;horizontal=1;startSize=26;horizontalStack=0;resizeParent=1;resizeParentMax=0;resizeLast=0;collapsible=1;marginBottom=0;whiteSpace=wrap;html=1;" vertex="1" parent="1">
          <mxGeometry x="-580" y="560" width="160" height="60" as="geometry" />
        </mxCell>
        <mxCell id="WQkxO2qCiPvi56gEC8bx-34" value="" style="line;strokeWidth=1;fillColor=none;align=left;verticalAlign=middle;spacingTop=-1;spacingLeft=3;spacingRight=3;rotatable=0;labelPosition=right;points=[];portConstraint=eastwest;strokeColor=inherit;" vertex="1" parent="WQkxO2qCiPvi56gEC8bx-33">
          <mxGeometry y="26" width="160" height="8" as="geometry" />
        </mxCell>
        <mxCell id="WQkxO2qCiPvi56gEC8bx-35" value="+ ExecuteAction(): void" style="text;strokeColor=none;fillColor=none;align=left;verticalAlign=top;spacingLeft=4;spacingRight=4;overflow=hidden;rotatable=0;points=[[0,0.5],[1,0.5]];portConstraint=eastwest;whiteSpace=wrap;html=1;" vertex="1" parent="WQkxO2qCiPvi56gEC8bx-33">
          <mxGeometry y="34" width="160" height="26" as="geometry" />
        </mxCell>
        <mxCell id="WQkxO2qCiPvi56gEC8bx-36" value="PagerAlertFeature" style="swimlane;fontStyle=1;align=center;verticalAlign=top;childLayout=stackLayout;horizontal=1;startSize=26;horizontalStack=0;resizeParent=1;resizeParentMax=0;resizeLast=0;collapsible=1;marginBottom=0;whiteSpace=wrap;html=1;" vertex="1" parent="1">
          <mxGeometry x="-410" y="560" width="160" height="60" as="geometry" />
        </mxCell>
        <mxCell id="WQkxO2qCiPvi56gEC8bx-37" value="" style="line;strokeWidth=1;fillColor=none;align=left;verticalAlign=middle;spacingTop=-1;spacingLeft=3;spacingRight=3;rotatable=0;labelPosition=right;points=[];portConstraint=eastwest;strokeColor=inherit;" vertex="1" parent="WQkxO2qCiPvi56gEC8bx-36">
          <mxGeometry y="26" width="160" height="8" as="geometry" />
        </mxCell>
        <mxCell id="WQkxO2qCiPvi56gEC8bx-38" value="+ ExecuteAction(): void" style="text;strokeColor=none;fillColor=none;align=left;verticalAlign=top;spacingLeft=4;spacingRight=4;overflow=hidden;rotatable=0;points=[[0,0.5],[1,0.5]];portConstraint=eastwest;whiteSpace=wrap;html=1;" vertex="1" parent="WQkxO2qCiPvi56gEC8bx-36">
          <mxGeometry y="34" width="160" height="26" as="geometry" />
        </mxCell>
        <mxCell id="WQkxO2qCiPvi56gEC8bx-39" value="" style="endArrow=block;endSize=16;endFill=0;html=1;rounded=0;exitX=0.5;exitY=0;exitDx=0;exitDy=0;entryX=0.495;entryY=1;entryDx=0;entryDy=0;entryPerimeter=0;" edge="1" parent="1" source="WQkxO2qCiPvi56gEC8bx-26" target="WQkxO2qCiPvi56gEC8bx-25">
          <mxGeometry width="160" relative="1" as="geometry">
            <mxPoint x="-560" y="510" as="sourcePoint" />
            <mxPoint x="-400" y="510" as="targetPoint" />
            <Array as="points">
              <mxPoint x="-670" y="510" />
              <mxPoint x="-501" y="510" />
            </Array>
          </mxGeometry>
        </mxCell>
        <mxCell id="WQkxO2qCiPvi56gEC8bx-40" value="" style="endArrow=block;endSize=16;endFill=0;html=1;rounded=0;exitX=0.5;exitY=0;exitDx=0;exitDy=0;entryX=0.5;entryY=1;entryDx=0;entryDy=0;entryPerimeter=0;" edge="1" parent="1" source="WQkxO2qCiPvi56gEC8bx-33" target="WQkxO2qCiPvi56gEC8bx-25">
          <mxGeometry width="160" relative="1" as="geometry">
            <mxPoint x="-550" y="520" as="sourcePoint" />
            <mxPoint x="-500" y="450" as="targetPoint" />
          </mxGeometry>
        </mxCell>
        <mxCell id="WQkxO2qCiPvi56gEC8bx-41" value="" style="endArrow=block;endSize=16;endFill=0;html=1;rounded=0;exitX=0.5;exitY=0;exitDx=0;exitDy=0;entryX=0.495;entryY=1;entryDx=0;entryDy=0;entryPerimeter=0;" edge="1" parent="1" source="WQkxO2qCiPvi56gEC8bx-36" target="WQkxO2qCiPvi56gEC8bx-25">
          <mxGeometry width="160" relative="1" as="geometry">
            <mxPoint x="-540" y="530" as="sourcePoint" />
            <mxPoint x="-380" y="530" as="targetPoint" />
            <Array as="points">
              <mxPoint x="-330" y="510" />
              <mxPoint x="-500" y="510" />
            </Array>
          </mxGeometry>
        </mxCell>
        <mxCell id="WQkxO2qCiPvi56gEC8bx-43" value="«interface»&lt;br&gt;&lt;div&gt;&lt;b&gt;IDoorOperator&lt;/b&gt;&lt;/div&gt;&lt;div&gt;+ open(): void&lt;/div&gt;&lt;div&gt;+ close(): void&lt;br&gt;&lt;/div&gt;" style="html=1;whiteSpace=wrap;" vertex="1" parent="1">
          <mxGeometry x="-640" y="57.5" width="110" height="65" as="geometry" />
        </mxCell>
        <mxCell id="WQkxO2qCiPvi56gEC8bx-44" value="" style="endArrow=block;dashed=1;endFill=0;endSize=12;html=1;rounded=0;entryX=1;entryY=0.5;entryDx=0;entryDy=0;exitX=-0.005;exitY=1;exitDx=0;exitDy=0;exitPerimeter=0;" edge="1" parent="1" source="WQkxO2qCiPvi56gEC8bx-2" target="WQkxO2qCiPvi56gEC8bx-43">
          <mxGeometry width="160" relative="1" as="geometry">
            <mxPoint x="-320" y="120" as="sourcePoint" />
            <mxPoint x="-110" y="310" as="targetPoint" />
          </mxGeometry>
        </mxCell>
        <mxCell id="WQkxO2qCiPvi56gEC8bx-45" value="Implements" style="edgeLabel;html=1;align=center;verticalAlign=middle;resizable=0;points=[];" vertex="1" connectable="0" parent="WQkxO2qCiPvi56gEC8bx-44">
          <mxGeometry x="-0.0177" y="1" relative="1" as="geometry">
            <mxPoint as="offset" />
          </mxGeometry>
        </mxCell>
        <mxCell id="WQkxO2qCiPvi56gEC8bx-46" value="Use" style="endArrow=open;endSize=12;dashed=1;html=1;rounded=0;exitX=0;exitY=0.5;exitDx=0;exitDy=0;entryX=0;entryY=0.5;entryDx=0;entryDy=0;" edge="1" parent="1" source="WQkxO2qCiPvi56gEC8bx-26" target="WQkxO2qCiPvi56gEC8bx-43">
          <mxGeometry width="160" relative="1" as="geometry">
            <mxPoint x="-270" y="310" as="sourcePoint" />
            <mxPoint x="-110" y="310" as="targetPoint" />
            <Array as="points">
              <mxPoint x="-800" y="590" />
              <mxPoint x="-800" y="90" />
            </Array>
          </mxGeometry>
        </mxCell>
        <mxCell id="WQkxO2qCiPvi56gEC8bx-47" value="&lt;div&gt;ExecuteAction&lt;/div&gt;" style="html=1;verticalAlign=bottom;endArrow=block;curved=0;rounded=0;exitX=0.01;exitY=0.931;exitDx=0;exitDy=0;exitPerimeter=0;entryX=0.995;entryY=1.032;entryDx=0;entryDy=0;entryPerimeter=0;" edge="1" parent="1" source="WQkxO2qCiPvi56gEC8bx-13" target="WQkxO2qCiPvi56gEC8bx-25">
          <mxGeometry width="80" relative="1" as="geometry">
            <mxPoint x="-540" y="310" as="sourcePoint" />
            <mxPoint x="-460" y="310" as="targetPoint" />
          </mxGeometry>
        </mxCell>
        <mxCell id="WQkxO2qCiPvi56gEC8bx-48" value="subsribe" style="html=1;verticalAlign=bottom;endArrow=block;curved=0;rounded=0;exitX=1;exitY=0;exitDx=0;exitDy=0;entryX=-0.003;entryY=0.104;entryDx=0;entryDy=0;entryPerimeter=0;" edge="1" parent="1" source="WQkxO2qCiPvi56gEC8bx-22" target="WQkxO2qCiPvi56gEC8bx-10">
          <mxGeometry width="80" relative="1" as="geometry">
            <mxPoint x="-470" y="330" as="sourcePoint" />
            <mxPoint x="-390" y="330" as="targetPoint" />
          </mxGeometry>
        </mxCell>
      </root>
    </mxGraphModel>
  </diagram>
</mxfile>
